<svg id="Layer_1" data-name="Layer 1" xmlns="http://www.w3.org/2000/svg" viewBox="0 0 958.8 321.8"><defs><style>.cls-1{fill:#6c6e69;}.cls-2{fill:none;stroke:#b9b2ae;stroke-miterlimit:10;stroke-width:1.37px;}.cls-3{fill:#1e88e5;}.cls-4{fill:#9c9ba1;}.cls-5{fill:#a7968f;}.cls-6{fill:#8a7c79;}.cls-7{fill:#b3a7a5;}.cls-8{fill:#8d8d8d;}.cls-9{fill:#4b3d3d;}.cls-10{fill:#666667;}.cls-11{fill:#cdcbd6;}.cls-12{fill:#e2dae1;}.cls-13{fill:#9b9a9d;}</style></defs><title>ประตูน้ำ5บาน</title><path class="cls-1" d="M81.7,136.1H73.4a.79.79,0,0,1-.8-.8V93.9a.79.79,0,0,1,.8-.8h8.3a.79.79,0,0,1,.8.8v41.4C82.6,135.7,82.2,136.1,81.7,136.1Z"/><path class="cls-1" d="M192,136.1h-8.3a.79.79,0,0,1-.8-.8V93.9a.79.79,0,0,1,.8-.8H192a.79.79,0,0,1,.8.8v41.4A.86.86,0,0,1,192,136.1Z"/><path class="cls-1" d="M306,136.1h-8.3a.79.79,0,0,1-.8-.8V93.9a.79.79,0,0,1,.8-.8H306a.79.79,0,0,1,.8.8v41.4C306.9,135.7,306.5,136.1,306,136.1Z"/><path class="cls-1" d="M425.6,136.1h-8.3a.79.79,0,0,1-.8-.8V92.1a.79.79,0,0,1,.8-.8h8.3a.79.79,0,0,1,.8.8v43.2C426.5,135.7,426.1,136.1,425.6,136.1Z"/><path class="cls-1" d="M548.2,136.1h-8.3a.79.79,0,0,1-.8-.8V88.2a.79.79,0,0,1,.8-.8h8.3a.79.79,0,0,1,.8.8v47.1A.86.86,0,0,1,548.2,136.1Z"/><path class="cls-1" d="M673.4,136.1h-8.3a.79.79,0,0,1-.8-.8v-49a.79.79,0,0,1,.8-.8h8.3a.79.79,0,0,1,.8.8v49A.86.86,0,0,1,673.4,136.1Z"/><path class="cls-1" d="M831,136.1h-8.3a.79.79,0,0,1-.8-.8V84.1a.79.79,0,0,1,.8-.8H831a.79.79,0,0,1,.8.8v51.2C831.9,135.7,831.5,136.1,831,136.1Z"/><polyline class="cls-2" points="4.4 136.8 924.6 131.5 924.6 306.9 4.4 306.9"/><rect class="cls-3" x="789.4" y="153.3" width="115.8" height="153.9"/><rect class="cls-4" x="743.4" y="153.3" width="46" height="153.9"/><rect class="cls-5" x="905.2" y="153.3" width="18.4" height="153.9"/><rect class="cls-3" x="609.2" y="153" width="115.8" height="153.9"/><rect class="cls-4" x="563.2" y="153" width="46" height="153.9"/><rect class="cls-5" x="725" y="153" width="18.4" height="153.9"/><rect class="cls-3" x="429" y="153" width="115.8" height="153.9"/><rect class="cls-4" x="383" y="153" width="46" height="153.9"/><rect class="cls-5" x="544.8" y="153" width="18.4" height="153.9"/><rect class="cls-3" x="248.8" y="153" width="115.8" height="153.9"/><rect class="cls-4" x="202.8" y="153" width="46" height="153.9"/><rect class="cls-5" x="364.6" y="153" width="18.4" height="153.9"/><rect class="cls-3" x="68.6" y="153" width="115.8" height="153.9"/><rect class="cls-4" x="22.6" y="153" width="46" height="153.9"/><rect class="cls-5" x="184.4" y="153" width="18.4" height="153.9"/><rect class="cls-5" x="4.4" y="153" width="18.4" height="153.9"/><rect class="cls-6" x="4.4" y="136.8" width="175.2" height="16.5"/><rect class="cls-6" x="179.6" y="136.8" width="175.2" height="16.5"/><rect class="cls-6" x="354.7" y="136.8" width="175.2" height="16.5"/><rect class="cls-6" x="514.3" y="136.8" width="221.7" height="16.5"/><rect class="cls-6" x="727.7" y="136.8" width="221.7" height="16.5"/><rect class="cls-7" x="3.7" y="307.2" width="920.9" height="14.6"/><polygon class="cls-6" points="923.7 321.8 954.1 266.2 958.8 90.2 923.6 87.3 923.7 321.8"/><polyline class="cls-8" points="18.9 31.7 12.6 39.6 93.4 53.1 945.8 35.7 917.2 25.8 30.9 33.9 18.9 31.7"/><rect class="cls-9" x="14.1" y="31.7" width="3.5" height="59.6"/><polygon class="cls-10" points="76.1 39.6 90.6 46.3 942.3 33.1 917.2 25.8 76.1 39.6"/><rect class="cls-9" x="124.3" y="36.1" width="3.5" height="59.6"/><rect class="cls-9" x="238.4" y="36.1" width="3.5" height="59.6"/><rect class="cls-9" x="825.1" y="30.3" width="3.5" height="56.5"/><rect class="cls-9" x="75.8" y="44.6" width="3" height="51.1"/><rect class="cls-9" x="186.3" y="42.5" width="3" height="53.2"/><rect class="cls-9" x="300.3" y="41.4" width="3" height="54.3"/><rect class="cls-9" x="419.5" y="38.8" width="3" height="56.9"/><rect class="cls-9" x="358" y="33.5" width="3.5" height="57.7"/><rect class="cls-9" x="605.7" y="28.6" width="3.5" height="56.8"/><rect class="cls-9" x="737.7" y="25.8" width="3.5" height="59.6"/><rect class="cls-9" x="480.5" y="30.8" width="3.5" height="56.6"/><path class="cls-11" d="M0,39.6,917.4,25.8S916.9,3.2,934.8,0L35,19.9Z"/><rect class="cls-9" x="542.5" y="36.1" width="3" height="53.9"/><rect class="cls-9" x="667.7" y="33.4" width="3" height="56.6"/><rect class="cls-9" x="936" y="25.8" width="3.5" height="63.6"/><rect class="cls-9" x="915.8" y="25.8" width="3.5" height="59.6"/><path class="cls-12" d="M917.4,82.5,14.1,96.6a1.45,1.45,0,0,0-1.4,1.5v1.1a1.45,1.45,0,0,0,1.5,1.4L917.5,86.5a1.45,1.45,0,0,0,1.4-1.5V83.9A1.52,1.52,0,0,0,917.4,82.5Z"/><path class="cls-12" d="M916.8,98.2,14.1,112.3a1.45,1.45,0,0,0-1.4,1.5v1.1a1.45,1.45,0,0,0,1.5,1.4l902.7-14.1a1.45,1.45,0,0,0,1.4-1.5V99.6A1.52,1.52,0,0,0,916.8,98.2Z"/><path class="cls-12" d="M920.2,113,14.1,127.1a1.45,1.45,0,0,0-1.4,1.5v1.7a1.45,1.45,0,0,0,1.5,1.4l906.1-14.1a1.45,1.45,0,0,0,1.4-1.5v-1.7A1.52,1.52,0,0,0,920.2,113Z"/><path class="cls-1" d="M20,136.1H11.7a.79.79,0,0,1-.8-.8V93.9a.79.79,0,0,1,.8-.8H20a.79.79,0,0,1,.8.8v41.4C20.9,135.7,20.5,136.1,20,136.1Z"/><path class="cls-1" d="M130.2,136.1h-8.3a.79.79,0,0,1-.8-.8V93.9a.79.79,0,0,1,.8-.8h8.3a.79.79,0,0,1,.8.8v41.4C131.1,135.7,130.7,136.1,130.2,136.1Z"/><path class="cls-1" d="M244.3,136.1H236a.79.79,0,0,1-.8-.8V93.9a.79.79,0,0,1,.8-.8h8.3a.79.79,0,0,1,.8.8v41.4A.79.79,0,0,1,244.3,136.1Z"/><path class="cls-1" d="M363.9,136.1h-8.3a.79.79,0,0,1-.8-.8V92.1a.79.79,0,0,1,.8-.8h8.3a.79.79,0,0,1,.8.8v43.2A.79.79,0,0,1,363.9,136.1Z"/><path class="cls-1" d="M486.5,136.1h-8.3a.79.79,0,0,1-.8-.8V88.2a.79.79,0,0,1,.8-.8h8.3a.79.79,0,0,1,.8.8v47.1A.86.86,0,0,1,486.5,136.1Z"/><path class="cls-1" d="M611.6,136.1h-8.3a.79.79,0,0,1-.8-.8v-49a.79.79,0,0,1,.8-.8h8.3a.79.79,0,0,1,.8.8v49C612.5,135.7,612.1,136.1,611.6,136.1Z"/><path class="cls-1" d="M743.2,136.8h-11a.79.79,0,0,1-.8-.8V85.8a.79.79,0,0,1,.8-.8h11a.79.79,0,0,1,.8.8V136A.74.74,0,0,1,743.2,136.8Z"/><path class="cls-1" d="M923.8,136.8h-11a.79.79,0,0,1-.8-.8V82.5a.79.79,0,0,1,.8-.8h11a.79.79,0,0,1,.8.8V136A.79.79,0,0,1,923.8,136.8Z"/><path class="cls-13" d="M945.7,35.7l-28.3-10S915.8,3.6,934.8-.1C934.8-.1,946.7,26.4,945.7,35.7Z"/></svg>