<svg height="512" viewBox="0 0 64 64" width="512" xmlns="http://www.w3.org/2000/svg"><g id="Ai-7" data-name="Ai"><path d="m32 3.26v57.48a6.89 6.89 0 0 1 -4 1.26 6.992 6.992 0 0 1 -6.75-5.16 4.709 4.709 0 0 1 -1.25.16 5 5 0 0 1 -5-5 4.619 4.619 0 0 1 .1-.99 9 9 0 0 1 -8.7-15.74 6.991 6.991 0 0 1 1.64-11.61 6.889 6.889 0 0 1 -1.04-3.66 6.97 6.97 0 0 1 4-6.32 6.844 6.844 0 0 1 3-.68 5.907 5.907 0 0 1 1.12.1 5.01 5.01 0 0 1 4.88-6.1 4.709 4.709 0 0 1 1.25.16 6.992 6.992 0 0 1 6.75-5.16 6.89 6.89 0 0 1 4 1.26z" fill="#ffde17"/><g fill="#e0e0e2"><path d="m16 16a4 4 0 0 0 4 4"/><path d="m14 40a4 4 0 0 0 -4-4"/><path d="m17 49a3 3 0 0 1 3-3"/><path d="m27 29c0-1.105-1.342-2-3-2"/><path d="m24 35a3 3 0 0 0 3 3"/><path d="m23 55c0-2.211 1.342-4 3-4"/><path d="m10 25a3 3 0 0 0 3 3"/></g><circle cx="55" cy="25" fill="#1e81ce" r="3"/><circle cx="51" cy="39" fill="#ffde17" r="3"/><circle cx="47" cy="16" fill="#ffde17" r="3"/><circle cx="47" cy="52" fill="#ed1c24" r="3"/><path d="m20 19a3 3 0 0 1 -3-3 1 1 0 0 0 -2 0 5.006 5.006 0 0 0 5 5 1 1 0 0 0 0-2z"/><path d="m10 35a1 1 0 0 0 0 2 3 3 0 0 1 3 3 1 1 0 0 0 2 0 5.006 5.006 0 0 0 -5-5z"/><path d="m20 45a4 4 0 0 0 -4 4 1 1 0 0 0 2 0 2 2 0 0 1 2-2 1 1 0 0 0 0-2z"/><path d="m23 27a1 1 0 0 0 1 1c1.221 0 2 .592 2 1a1 1 0 0 0 2 0c0-1.683-1.757-3-4-3a1 1 0 0 0 -1 1z"/><path d="m27 37a2 2 0 0 1 -2-2 1 1 0 0 0 -2 0 4 4 0 0 0 4 4 1 1 0 0 0 0-2z"/><path d="m26 50c-2.206 0-4 2.243-4 5a1 1 0 0 0 2 0c0-1.626.916-3 2-3a1 1 0 0 0 0-2z"/><path d="m23 21h1a1 1 0 0 0 0-2h-1a1 1 0 0 0 0 2z"/><path d="m20 26h-1a1 1 0 0 0 0 2h1a1 1 0 0 0 0-2z"/><path d="m28 10a1 1 0 0 0 2 0v-4a1 1 0 0 0 -2 0z"/><path d="m29 40a1 1 0 0 0 -1 1v4a1 1 0 0 0 2 0v-4a1 1 0 0 0 -1-1z"/><path d="m13 29a1 1 0 0 0 0-2 2 2 0 0 1 -2-2 1 1 0 0 0 -2 0 4 4 0 0 0 4 4z"/><path d="m55 21a4 4 0 0 0 -3.866 3.027 1.026 1.026 0 0 0 -.134-.027h-3a1 1 0 0 0 -.6.2l-6.4 4.8v-7.586l2.908-2.908a3.977 3.977 0 1 0 -.908-2.506 3.9 3.9 0 0 0 .054.532l-3.761 3.761a1 1 0 0 0 -.293.707v7.586l-2 2v-23.586a1 1 0 0 0 -2 0v25.586l-.414.414h-1.586v-29.74a1 1 0 0 0 -.422-.817 7.878 7.878 0 0 0 -4.578-1.443 8 8 0 0 0 -7.425 5.026c-.188-.017-.375-.026-.575-.026a6.006 6.006 0 0 0 -6 6 7.829 7.829 0 0 0 -3.427.775 7.99 7.99 0 0 0 -3.873 10.484 7.991 7.991 0 0 0 -1.846 11.857 9.995 9.995 0 0 0 9.169 17.413 6.008 6.008 0 0 0 5.977 5.471c.2 0 .387-.009.575-.026a8 8 0 0 0 7.425 5.026 7.878 7.878 0 0 0 4.578-1.443 1 1 0 0 0 .422-.817v-25.74h2v21a1 1 0 0 0 2 0v-22.586l2-2v15.586a1 1 0 0 0 .293.707l3.761 3.761a3.9 3.9 0 0 0 -.054.532 4.05 4.05 0 1 0 .908-2.506l-2.908-2.908v-10.172l3.293 3.293a1 1 0 0 0 .707.293h2a1.026 1.026 0 0 0 .134-.027 4 4 0 1 0 0-1.946 1.026 1.026 0 0 0 -.134-.027h-1.586l-4.414-4.414v-2.086l7.333-5.5h2.667a1.026 1.026 0 0 0 .134-.027 3.994 3.994 0 1 0 3.866-4.973zm-8-7a2 2 0 1 1 -2 2 2 2 0 0 1 2-2zm-16 46.2a5.9 5.9 0 0 1 -3 .8 5.993 5.993 0 0 1 -5.784-4.42 1 1 0 0 0 -1.232-.7 3.723 3.723 0 0 1 -.984.12 4 4 0 0 1 -4-4 3.609 3.609 0 0 1 .077-.777 1 1 0 0 0 -1.433-1.1 8 8 0 0 1 -7.734-13.993 1 1 0 0 0 .147-1.614 5.991 5.991 0 0 1 1.4-9.949 1 1 0 0 0 .428-1.435 5.984 5.984 0 0 1 2.546-8.552 5.847 5.847 0 0 1 2.569-.58 4.888 4.888 0 0 1 .931.082 1 1 0 0 0 1.165-1.2 4.01 4.01 0 0 1 3.904-4.882 3.723 3.723 0 0 1 .984.124 1 1 0 0 0 1.232-.7 5.993 5.993 0 0 1 5.784-4.424 5.9 5.9 0 0 1 3 .8zm16-10.2a2 2 0 1 1 -2 2 2 2 0 0 1 2-2zm4-13a2 2 0 1 1 -2 2 2 2 0 0 1 2-2zm4-10a2 2 0 1 1 2-2 2 2 0 0 1 -2 2z"/><path d="m53 17h2a1 1 0 0 0 0-2h-2a1 1 0 0 0 0 2z"/><path d="m54 51h-1a1 1 0 0 0 0 2h1a1 1 0 0 0 0-2z"/><path d="m40 13a1 1 0 0 0 1-1v-6a1 1 0 0 0 -2 0v6a1 1 0 0 0 1 1z"/><path d="m40 52a1 1 0 0 0 -1 1v4a1 1 0 0 0 2 0v-4a1 1 0 0 0 -1-1z"/></g></svg>