<svg height="512" viewBox="0 0 64 64" width="512" xmlns="http://www.w3.org/2000/svg"><g id="Ai-4" data-name="Ai"><circle cx="19" cy="20" fill="#1e81ce" r="15"/><path d="m60 32-5.18 2-1.82 17h-12.44l-1 11.03-20.56-.03 2.52-22.9a21.1 21.1 0 0 1 -3.79-4.16c.42.04.84.06 1.27.06a15 15 0 0 0 4.23-29.39 20.982 20.982 0 0 1 32.74 16.78l1.03 3.61z" fill="#ffeb99"/><path d="m26 16a6.994 6.994 0 0 0 -7.116-7 7.086 7.086 0 0 0 -6.879 6.744 6.97 6.97 0 0 0 2.458 5.58 4.157 4.157 0 0 1 1.537 3.151v.525h6v-.529a4.085 4.085 0 0 1 1.5-3.119 6.969 6.969 0 0 0 2.5-5.352z" fill="#ffde17"/><path d="m14 25h10v3h-10z" fill="#898890"/><path d="m16 28h6v3h-6z" fill="#e0e0e2"/><path d="m60.9 31.553-2.959-5.917-.971-3.4a21.964 21.964 0 0 0 -33.9-17.7 15.8 15.8 0 0 0 -4.07-.536 15.988 15.988 0 0 0 -1.823 31.874 22.077 22.077 0 0 0 3.291 3.64l-2.462 22.377a1 1 0 0 0 .994 1.109l20.56.03a1 1 0 0 0 1-.91l.914-10.12h11.526a1 1 0 0 0 .994-.894l1.755-16.393 4.611-1.78a1 1 0 0 0 .535-1.38zm-41.9 2.447c-.4 0-.787-.019-1.175-.056h-.007-.005a14 14 0 0 1 1.187-27.944 13.779 13.779 0 0 1 3.944.568 14 14 0 0 1 -3.944 27.432zm35.459-.933a1 1 0 0 0 -.633.827l-1.726 16.106h-11.54a1 1 0 0 0 -1 .91l-.917 10.118-18.527-.028 2.4-21.792a1 1 0 0 0 -.35-.875 20.219 20.219 0 0 1 -2.374-2.353 16 16 0 0 0 5.726-30.591 19.985 19.985 0 0 1 29.452 17.03 1.033 1.033 0 0 0 .038.246l1.031 3.609a.95.95 0 0 0 .066.173l2.509 5.016z"/><path d="m27 16a7.942 7.942 0 0 0 -2.388-5.7 8 8 0 1 0 -10.8 11.79 3.267 3.267 0 0 1 1.13 1.91h-.942a1 1 0 0 0 -1 1v3a1 1 0 0 0 1 1h1v2a1 1 0 0 0 1 1h6a1 1 0 0 0 1-1v-2h1a1 1 0 0 0 1-1v-3a1 1 0 0 0 -1-1h-.945a3.156 3.156 0 0 1 1.092-1.883 7.969 7.969 0 0 0 2.853-6.117zm-6 14h-4v-1h4zm2-3h-8v-1h8zm-.139-6.414a5.134 5.134 0 0 0 -1.838 3.414h-4.047a5.239 5.239 0 0 0 -1.865-3.437 5.965 5.965 0 0 1 -2.111-4.782 6 6 0 0 1 10.205-4.059 5.995 5.995 0 0 1 -.348 8.864z"/></g></svg>