<svg xmlns="http://www.w3.org/2000/svg" height="512pt" version="1.1" viewBox="0 0 512 512" width="512pt">
<g id="surface1">
<path d="M 512 256 C 512 397.386719 397.386719 512 256 512 C 114.613281 512 0 397.386719 0 256 C 0 114.613281 114.613281 0 256 0 C 397.386719 0 512 114.613281 512 256 Z M 512 256 " style=" stroke:none;fill-rule:nonzero;fill:rgb(25.490196%,28.627451%,32.156863%);fill-opacity:1;" />
<path d="M 507.851562 302.09375 L 283.558594 78.503906 L 84.59375 362.730469 L 232.808594 510.941406 C 240.449219 511.628906 248.179688 512 256 512 C 381.648438 512 486.144531 421.476562 507.851562 302.09375 Z M 507.851562 302.09375 " style=" stroke:none;fill-rule:nonzero;fill:rgb(20%,22.352941%,25.098039%);fill-opacity:1;" />
<path d="M 81.78125 326.054688 L 228.441406 78.503906 C 240.847656 57.5625 271.152344 57.5625 283.558594 78.503906 L 430.21875 326.054688 C 442.871094 347.410156 427.480469 374.414062 402.660156 374.414062 L 109.339844 374.414062 C 84.519531 374.414062 69.128906 347.40625 81.78125 326.054688 Z M 81.78125 326.054688 " style=" stroke:none;fill-rule:nonzero;fill:rgb(100%,100%,100%);fill-opacity:1;" />
<path d="M 430.21875 326.054688 L 283.558594 78.503906 C 277.308594 67.953125 266.519531 62.726562 255.761719 62.804688 L 255.761719 374.414062 L 402.660156 374.414062 C 427.480469 374.414062 442.871094 347.40625 430.21875 326.054688 Z M 430.21875 326.054688 " style=" stroke:none;fill-rule:nonzero;fill:rgb(91.372549%,92.941176%,96.078431%);fill-opacity:1;" />
<path d="M 100.234375 334.605469 L 245.238281 89.851562 C 250.082031 81.675781 261.917969 81.675781 266.761719 89.851562 L 411.765625 334.605469 C 416.707031 342.945312 410.695312 353.492188 401.003906 353.492188 L 110.996094 353.492188 C 101.304688 353.492188 95.292969 342.945312 100.234375 334.605469 Z M 100.234375 334.605469 " style=" stroke:none;fill-rule:nonzero;fill:rgb(99.607843%,41.568627%,8.627451%);fill-opacity:1;" />
<path d="M 411.765625 334.605469 L 266.761719 89.851562 C 264.292969 85.683594 260.011719 83.652344 255.761719 83.734375 L 255.761719 353.492188 L 401.003906 353.492188 C 410.695312 353.492188 416.707031 342.945312 411.765625 334.605469 Z M 411.765625 334.605469 " style=" stroke:none;fill-rule:nonzero;fill:rgb(94.901961%,27.058824%,0%);fill-opacity:1;" />
<path d="M 269.667969 130.578125 L 195.589844 253.511719 L 238.769531 253.511719 L 223.882812 334.710938 L 299.078125 217.402344 L 252.917969 217.402344 Z M 269.667969 130.578125 " style=" stroke:none;fill-rule:nonzero;fill:rgb(100%,100%,100%);fill-opacity:1;" />
<path d="M 269.667969 130.578125 L 255.761719 153.65625 L 255.761719 202.65625 Z M 269.667969 130.578125 " style=" stroke:none;fill-rule:nonzero;fill:rgb(91.372549%,92.941176%,96.078431%);fill-opacity:1;" />
<path d="M 255.761719 217.402344 L 255.761719 284.972656 L 299.078125 217.402344 Z M 255.761719 217.402344 " style=" stroke:none;fill-rule:nonzero;fill:rgb(91.372549%,92.941176%,96.078431%);fill-opacity:1;" />
</g>
</svg>